<?xml version="1.0" encoding="UTF-8" standalone="no"?>
<svg
   version="1.1"
   id="svg1"
   width="1333.3333"
   height="333.33334"
   viewBox="0 0 1333.3333 333.33334"
   xmlns="http://www.w3.org/2000/svg">
  <g id="g1">
    <g id="group-R5">
      <path
         id="path2"
         d="m 4492.81,1578.24 c -87.01,0 -174.02,-33.12 -240.27,-99.36 -132.48,-132.48 -132.48,-348.06 0,-480.54 132.49,-132.481 348.05,-132.481 480.54,0 132.48,132.48 132.48,348.06 0,480.54 -66.25,66.24 -153.26,99.36 -240.27,99.36 z m 0,-1043.611 c -180.36,0 -360.71,68.652 -498.02,205.949 -274.61,274.622 -274.61,721.452 0,996.052 274.61,274.62 721.43,274.62 996.04,0 274.61,-274.6 274.61,-721.43 0,-996.052 C 4853.52,603.281 4673.17,534.629 4492.81,534.629"
         style="fill:#BBBEF6;fill-opacity:1;fill-rule:nonzero;stroke:none"
         transform="matrix(0.13333333,0,0,-0.13333333,0,333.33333)" />
      <path
         id="path3"
         d="m 1443.04,998.34 c -153.96,153.96 -129,420.15 74.88,537.71 24.47,14.11 50.92,24.8 78.34,31.59 121.86,30.19 242.87,-4.34 327.3,-88.76 132.48,-132.48 132.48,-348.06 0,-480.54 -132.49,-132.481 -348.04,-132.481 -480.52,0 z M 2514.06,665.59 2342.84,836.82 c -28.21,28.2 -36.51,71.039 -19.87,107.289 130.85,284.971 61.77,639.921 -207.51,850.811 -104.97,82.22 -232.37,132.72 -365.15,144.92 -226.16,20.77 -441.83,-64.15 -592.39,-232.11 -238.631,-266.22 -237.178,-676.36 2.82,-941.359 139.92,-154.5 331.24,-231.742 522.55,-231.742 100.35,0 200.67,21.34 293.59,63.871 36.6,16.762 79.73,9.039 108.19,-19.418 l 171.24,-171.242 257.75,257.75"
         style="fill:#BBBEF6;fill-opacity:1;fill-rule:nonzero;stroke:none"
         transform="matrix(0.13333333,0,0,-0.13333333,0,333.33333)" />
      <path
         id="path4"
         d="m 3094.35,534.301 c -334.32,0 -606.32,272.008 -606.32,606.329 v 760.5 h 364.52 v -760.5 c 0,-133.33 108.47,-241.802 241.8,-241.802 133.34,0 241.82,108.472 241.82,241.802 v 760.5 h 364.51 v -760.5 c 0,-334.321 -271.99,-606.329 -606.33,-606.329"
         style="fill:#BBBEF6;fill-opacity:1;fill-rule:nonzero;stroke:none"
         transform="matrix(0.13333333,0,0,-0.13333333,0,333.33333)" />
      <path
         id="path5"
         d="m 8138.58,1277.24 v 53.45 c 0,130.05 99.73,242.11 229.62,248.53 138.84,6.86 254,-104.13 254,-241.51 v -60.47 c 0,-17.75 -14.39,-32.15 -32.15,-32.15 h -419.32 c -17.75,0 -32.15,14.4 -32.15,32.15 z m 227.2,666.62 c -331,-7.83 -591.71,-286.43 -591.71,-617.53 V 581.09 h 364.51 v 267.332 c 0,17.758 14.4,32.148 32.15,32.148 h 419.32 c 17.76,0 32.15,-14.39 32.15,-32.148 V 581.09 h 364.51 v 756.62 c 0,339.19 -279.95,614.22 -620.93,606.15"
         style="fill:#BBBEF6;fill-opacity:1;fill-rule:nonzero;stroke:none"
         transform="matrix(0.13333333,0,0,-0.13333333,0,333.33333)" />
      <path
         id="path6"
         d="m 6022.9,1171.44 479.37,729.69 h -436.14 l -356.97,-543.37 c -17.52,-26.67 -59.02,-14.26 -59.02,17.66 v 525.71 H 5285.63 V 581.09 h 364.51 v 345.988 c 0,30.473 38.43,43.852 57.35,19.973 L 5997.42,581.09 h 465.05 l -437.9,552.73 c -8.61,10.87 -9.29,26.03 -1.67,37.62"
         style="fill:#BBBEF6;fill-opacity:1;fill-rule:nonzero;stroke:none"
         transform="matrix(0.13333333,0,0,-0.13333333,0,333.33333)" />
      <path
         id="path7"
         d="m 7298.27,1171.44 479.37,729.69 H 7341.5 l -356.97,-543.37 c -17.52,-26.67 -59.02,-14.26 -59.02,17.66 v 525.71 H 6561 V 581.09 h 364.51 v 345.988 c 0,30.473 38.43,43.852 57.35,19.973 L 7272.79,581.09 h 465.05 l -437.9,552.73 c -8.61,10.87 -9.29,26.03 -1.67,37.62"
         style="fill:#BBBEF6;fill-opacity:1;fill-rule:nonzero;stroke:none"
         transform="matrix(0.13333333,0,0,-0.13333333,0,333.33333)" />
    </g>
  </g>
</svg>
